<svg width="144" height="67" viewBox="0 0 144 67" fill="none" xmlns="http://www.w3.org/2000/svg">
<path d="M0 46H6.27396L11.462 55.9631L16.5295 46H22.8034V66.5227H16.5295V55.5753L12.6987 62.7344H10.1349L6.27396 55.5753V66.5227H0V46Z" fill="white"/>
<path d="M26.7464 46H41.3152V50.5341H34.076V54.2628H40.6818V58.0213H34.076V61.9886H41.3152V66.5227H26.7464V46Z" fill="white"/>
<path d="M54.7598 67C52.769 67 50.9894 66.6222 49.4209 65.8665C47.8725 65.1108 46.666 64.0568 45.8013 62.7045C44.9366 61.3324 44.5043 59.7713 44.5043 58.0213V46H51.3212V58.0213C51.3212 59.2145 51.6128 60.1094 52.1959 60.706C52.7791 61.3026 53.6337 61.6009 54.7598 61.6009C55.8859 61.6009 56.7405 61.3026 57.3237 60.706C57.9068 60.0895 58.1984 59.1946 58.1984 58.0213V46H65.0153V58.0213C65.0153 59.7713 64.583 61.3324 63.7183 62.7045C62.8536 64.0568 61.637 65.1108 60.0685 65.8665C58.5202 66.6222 56.7506 67 54.7598 67Z" fill="white"/>
<path d="M77.6047 50.5341H73.2914V46H88.9461V50.5341H84.6328V66.5227H77.6047V50.5341Z" fill="white"/>
<path d="M91.7859 46H98.7537V66.5227H91.7859V46Z" fill="white"/>
<path d="M102.685 46H108.959L114.147 55.9631L119.214 46H125.488V66.5227H119.214V55.5753L115.384 62.7344H112.82L108.959 55.5753V66.5227H102.685V46Z" fill="white"/>
<path d="M129.431 46H144V50.5341H136.761V54.2628H143.367V58.0213H136.761V61.9886H144V66.5227H129.431V46Z" fill="white"/>
<path d="M87.4634 25.5854C87.2115 25.153 86.8822 24.7791 86.4947 24.4856C86.1072 24.192 85.6693 23.9847 85.2067 23.8757C83.4365 23.4318 81.9014 22.2505 80.9365 20.5899C79.9717 18.9292 79.6558 16.9244 80.0577 15.0133C80.2122 14.2747 80.1609 13.5034 79.9102 12.7961C79.6594 12.0888 79.2205 11.4772 78.6484 11.038C78.0763 10.5989 77.3966 10.3518 76.6947 10.3278C75.9929 10.3038 75.3001 10.5039 74.7033 10.9031C74.1066 11.3022 73.6325 11.8826 73.3407 12.5713C73.0489 13.26 72.9523 14.0263 73.0631 14.774C73.1738 15.5217 73.487 16.2175 73.9633 16.7738C74.4396 17.3302 75.0578 17.7225 75.7402 17.9013C76.6229 18.116 77.4577 18.5164 78.1967 19.0797C78.9357 19.6429 79.5643 20.3579 80.0465 21.1836C80.5287 22.0093 80.855 22.9295 81.0067 23.8914C81.1585 24.8533 81.1327 25.8381 80.9308 26.7893C80.8112 27.4024 80.8325 28.0378 80.9929 28.64C81.1532 29.2423 81.4478 29.7931 81.8508 30.2445C82.2539 30.6958 82.7531 31.0341 83.3052 31.2297C83.8572 31.4254 84.4453 31.4724 85.0181 31.3669C85.5909 31.2613 86.131 31.0063 86.5915 30.6241C87.052 30.2419 87.4187 29.7441 87.6599 29.174C87.901 28.6039 88.0091 27.9789 87.9749 27.3534C87.9407 26.7279 87.7651 26.1209 87.4634 25.5854Z" fill="white"/>
<path d="M65.555 21.3207C66.1784 21.6874 66.8891 21.8451 67.5961 21.7733C68.3031 21.7015 68.9741 21.4035 69.523 20.9177C70.0718 20.4319 70.4736 19.7803 70.6766 19.0466C70.8796 18.3129 70.8747 17.5305 70.6624 16.7999C70.3934 15.8681 70.2976 14.8884 70.3804 13.9167C70.4633 12.945 70.7232 12.0004 71.1453 11.1373C71.5673 10.2741 72.1433 9.50924 72.84 8.88651C73.5368 8.26378 74.3407 7.79552 75.2057 7.50846C75.8765 7.2819 76.4702 6.84644 76.912 6.25693C77.3538 5.66742 77.6241 4.95016 77.6887 4.1954C77.7534 3.44065 77.6095 2.68213 77.2753 2.01536C76.9411 1.34854 76.4314 0.80321 75.8104 0.448016C75.1894 0.0928226 74.4849 -0.0564251 73.7855 0.01914C73.086 0.094658 72.4229 0.391554 71.8795 0.872517C71.3362 1.35343 70.937 1.99691 70.732 2.72193C70.5271 3.44695 70.5256 4.22114 70.7278 4.94705C71.2585 6.82113 71.079 8.84562 70.2287 10.5774C69.3783 12.3091 67.9263 13.6071 66.1905 14.1872C65.5053 14.4015 64.8954 14.8326 64.44 15.4248C63.9845 16.017 63.7044 16.7429 63.6359 17.5086C63.5675 18.2744 63.7138 19.0447 64.056 19.7197C64.3982 20.3948 64.9204 20.9436 65.555 21.295V21.3207Z" fill="white"/>
<path d="M74.7246 20.6931C74.2508 20.711 73.7852 20.8307 73.3548 21.0451C72.9245 21.2595 72.5381 21.5643 72.2184 21.9418C70.978 23.3723 69.2627 24.2151 67.4476 24.2859C65.6325 24.3567 63.8652 23.6497 62.5322 22.3196C62.1877 21.9711 61.7825 21.6999 61.34 21.5218C60.8976 21.3438 60.4267 21.2623 59.9548 21.2822C59.3738 21.3118 58.8084 21.4942 58.3079 21.8135C57.8074 22.1329 57.3871 22.5794 57.0835 23.1142C56.7798 23.6491 56.6023 24.2559 56.5662 24.8817C56.5301 25.5076 56.6367 26.1334 56.8765 26.7047C57.1164 27.2759 57.4823 27.7752 57.9423 28.1589C58.4022 28.5426 58.9423 28.799 59.5154 28.9059C60.0884 29.0127 60.677 28.9667 61.2298 28.7719C61.7826 28.5771 62.2827 28.2393 62.6866 27.7881C63.3009 27.0709 64.0404 26.4915 64.8627 26.083C65.6851 25.6745 66.5741 25.4449 67.4788 25.4074C68.3835 25.37 69.2863 25.5253 70.1353 25.8646C70.9842 26.2039 71.7628 26.7204 72.4263 27.3847C72.8583 27.8056 73.3793 28.1058 73.9438 28.2593C74.5083 28.4128 75.0991 28.4149 75.6645 28.2652C76.2299 28.1156 76.7527 27.8189 77.1871 27.4011C77.6216 26.9832 77.9545 26.4569 78.1567 25.8682C78.3589 25.2795 78.4242 24.6465 78.347 24.0242C78.2698 23.4021 78.0523 22.8098 77.7136 22.2991C77.375 21.7885 76.9255 21.3752 76.4045 21.0952C75.8834 20.8152 75.3066 20.6771 74.7246 20.6931Z" fill="white"/>
</svg>
