<svg width="135" height="176" viewBox="0 0 135 176" fill="none" xmlns="http://www.w3.org/2000/svg">
<path d="M21.9516 160H2.99156V122.74H13.2516V151.66H22.5516L21.9516 160ZM26.9498 126.64C29.2698 123.64 33.0498 122.14 38.2898 122.14C43.5298 122.14 47.2698 123.62 49.5098 126.58C51.7898 129.54 52.9298 134.36 52.9298 141.04C52.9298 147.68 51.7698 152.6 49.4498 155.8C47.1298 159 43.3698 160.6 38.1698 160.6C32.9698 160.6 29.2298 159.02 26.9498 155.86C24.6698 152.7 23.5298 147.8 23.5298 141.16C23.5298 134.48 24.6698 129.64 26.9498 126.64ZM42.6098 141.04C42.6098 137.36 42.3098 134.88 41.7098 133.6C41.1498 132.28 39.9698 131.62 38.1698 131.62C36.4098 131.62 35.2698 132.28 34.7498 133.6C34.2298 134.88 33.9698 137.34 33.9698 140.98V142.42C33.9698 146.3 34.2498 148.86 34.8098 150.1C35.4098 151.3 36.5898 151.9 38.3498 151.9C40.1498 151.9 41.3098 151.32 41.8298 150.16C42.3498 149 42.6098 146.6 42.6098 142.96V141.04ZM79.455 133.84C75.615 132.68 72.795 132.1 70.995 132.1C69.235 132.1 68.015 132.88 67.335 134.44C66.695 136 66.375 138.48 66.375 141.88C66.375 145.24 66.675 147.7 67.275 149.26C67.915 150.78 69.195 151.54 71.115 151.54C71.675 151.54 72.755 151.38 74.355 151.06V146.5H71.655V139.42H83.115V160H76.035L75.075 158.08H74.835C74.155 158.64 73.615 159.06 73.215 159.34C72.095 160.18 70.515 160.6 68.475 160.6C60.115 160.6 55.935 154.28 55.935 141.64C55.935 135.32 57.035 130.5 59.235 127.18C61.435 123.82 65.135 122.14 70.335 122.14C74.495 122.14 78.075 122.78 81.075 124.06L79.455 133.84ZM98.9283 160H88.7283V122.74H98.9283V160ZM132.008 160H122.168L114.428 142.66H113.948V160H104.828V122.74H114.968L122.348 140.62H122.828V122.74H132.008V160Z" fill="#3C3939"/>
<path d="M117.353 81.4256C116.551 80.0497 115.503 78.8597 114.269 77.9254C113.036 76.9912 111.643 76.3314 110.17 75.9845C104.537 74.5718 99.6512 70.8122 96.5806 65.5273C93.5102 60.2423 92.5047 53.8618 93.7837 47.78C94.2755 45.4294 94.1122 42.9745 93.3142 40.7236C92.5162 38.4726 91.1192 36.5261 89.2987 35.1286C87.478 33.731 85.315 32.9448 83.0811 32.8682C80.8474 32.7919 78.6426 33.4287 76.7434 34.699C74.8443 35.9694 73.3357 37.8163 72.4068 40.0081C71.4782 42.2 71.1707 44.6387 71.5233 47.0183C71.8758 49.3978 72.8726 51.6121 74.3885 53.3828C75.9042 55.1535 77.8715 56.4019 80.0432 56.9709C82.8527 57.6542 85.5094 58.9286 87.8612 60.7212C90.2129 62.5136 92.2135 64.7891 93.7481 67.4168C95.2826 70.0446 96.3212 72.9731 96.8041 76.0345C97.2871 79.0958 97.2049 82.2299 96.5623 85.2569C96.1817 87.2084 96.2495 89.2305 96.7599 91.1471C97.2703 93.0636 98.2077 94.8165 99.4904 96.2531C100.773 97.6896 102.362 98.7661 104.119 99.3887C105.876 100.011 107.747 100.161 109.57 99.8252C111.393 99.4894 113.112 98.6778 114.578 97.4614C116.043 96.2449 117.21 94.6606 117.978 92.8463C118.745 91.0319 119.089 89.0429 118.98 87.0524C118.871 85.0617 118.313 83.13 117.353 81.4256Z" fill="#3C3939"/>
<path d="M47.6288 67.8532C49.6127 69.0204 51.8746 69.5221 54.1245 69.2935C56.3746 69.065 58.5099 68.1169 60.2567 66.5708C62.0035 65.0245 63.282 62.9509 63.9281 60.616C64.5743 58.2809 64.5586 55.791 63.8831 53.4656C63.0269 50.5004 62.7219 47.3823 62.9856 44.2899C63.2494 41.1974 64.0764 38.1915 65.4197 35.4444C66.763 32.6974 68.5959 30.2632 70.8133 28.2814C73.0308 26.2995 75.5892 24.8093 78.3419 23.8957C80.4769 23.1747 82.3662 21.7888 83.7723 19.9127C85.1784 18.0366 86.0385 15.7539 86.2442 13.3519C86.45 10.9499 85.9923 8.53588 84.9286 6.41388C83.8649 4.29173 82.2428 2.55622 80.2666 1.42581C78.2902 0.295408 76.0481 -0.179573 73.8221 0.0609131C71.596 0.30125 69.4857 1.24612 67.7565 2.77679C66.0273 4.30731 64.7567 6.35518 64.1044 8.66256C63.4523 10.9699 63.4475 13.4338 64.091 15.744C65.78 21.7083 65.2088 28.1512 62.5026 33.6625C59.7963 39.1738 55.1754 43.3046 49.6511 45.1509C47.4703 45.8328 45.5295 47.2047 44.0801 49.0894C42.6306 50.9741 41.7391 53.2844 41.5212 55.7213C41.3035 58.1584 41.7691 60.6098 42.8581 62.7582C43.947 64.9067 45.609 66.6531 47.6288 67.7716V67.8532Z" fill="#3C3939"/>
<path d="M76.8111 65.8558C75.3033 65.9128 73.8213 66.2937 72.4517 66.9761C71.0821 67.6585 69.8526 68.6285 68.835 69.8298C64.8874 74.3824 59.4286 77.0646 53.6521 77.2899C47.8755 77.5153 42.2511 75.2653 38.0086 71.0321C36.9125 69.9231 35.6228 69.0601 34.2146 68.4933C32.8065 67.9265 31.3079 67.6673 29.8059 67.7307C27.9572 67.8247 26.1578 68.4053 24.565 69.4216C22.9721 70.4379 21.6342 71.8591 20.6681 73.561C19.7018 75.2632 19.1367 77.1944 19.0218 79.1861C18.9071 81.178 19.2461 83.1697 20.0095 84.9877C20.7729 86.8056 21.9373 88.3945 23.4012 89.6157C24.8651 90.8368 26.5838 91.6529 28.4076 91.993C30.2313 92.333 32.1047 92.1868 33.8638 91.5667C35.6231 90.9466 37.2148 89.8717 38.5 88.4357C40.4551 86.1533 42.8085 84.3093 45.4255 83.0092C48.0427 81.7091 50.8719 80.9784 53.7512 80.8592C56.6306 80.74 59.5036 81.2343 62.2054 82.3141C64.9073 83.394 67.385 85.0379 69.4966 87.1518C70.8714 88.4913 72.5296 89.4469 74.3261 89.9354C76.1228 90.424 78.0029 90.4304 79.8024 89.9542C81.6018 89.4781 83.2654 88.5338 84.6481 87.2039C86.0307 85.8741 87.0901 84.199 87.7337 82.3256C88.3771 80.4522 88.585 78.4374 88.3393 76.4572C88.0935 74.4772 87.4015 72.5922 86.3236 70.9671C85.2459 69.3421 83.8155 68.0266 82.1572 67.1355C80.4988 66.2445 78.6633 65.805 76.8111 65.8558Z" fill="#3C3939"/>
</svg>
