<svg width="803" height="375" viewBox="0 0 803 375" fill="none" xmlns="http://www.w3.org/2000/svg">
<path d="M0 256.04H34.9678L63.8834 312.19L92.1266 256.04H127.094V371.703H92.1266V310.005L70.7761 350.352H56.4864L34.9678 310.005V371.703H0V256.04Z" fill="white"/>
<path d="M149.07 256.04H230.269V281.593H189.922V302.608H226.739V323.79H189.922V346.149H230.269V371.703H149.07V256.04Z" fill="white"/>
<path d="M305.202 374.392C294.107 374.392 284.188 372.263 275.446 368.004C266.816 363.745 260.092 357.805 255.272 350.184C250.453 342.451 248.043 333.653 248.043 323.79V256.04H286.037V323.79C286.037 330.515 287.662 335.558 290.912 338.92C294.163 342.283 298.926 343.964 305.202 343.964C311.478 343.964 316.242 342.283 319.492 338.92C322.742 335.446 324.367 330.402 324.367 323.79V256.04H362.361V323.79C362.361 333.653 359.951 342.451 355.132 350.184C350.313 357.805 343.532 363.745 334.79 368.004C326.16 372.263 316.298 374.392 305.202 374.392Z" fill="white"/>
<path d="M432.528 281.593H408.487V256.04H495.739V281.593H471.698V371.703H432.528V281.593Z" fill="white"/>
<path d="M511.566 256.04H550.401V371.703H511.566V256.04Z" fill="white"/>
<path d="M572.311 256.04H607.279L636.194 312.19L664.437 256.04H699.405V371.703H664.437V310.005L643.087 350.352H628.797L607.279 310.005V371.703H572.311V256.04Z" fill="white"/>
<path d="M721.381 256.04H802.58V281.593H762.233V302.608H799.05V323.79H762.233V346.149H802.58V371.703H721.381V256.04Z" fill="white"/>
<path d="M487.117 142.495C485.714 140.087 483.88 138.004 481.722 136.369C479.564 134.735 477.125 133.58 474.548 132.973C464.69 130.501 456.14 123.921 450.766 114.673C445.393 105.424 443.633 94.2582 445.872 83.615C446.732 79.5014 446.446 75.2054 445.05 71.2662C443.653 67.3271 441.209 63.9208 438.023 61.475C434.836 59.0293 431.051 57.6533 427.142 57.5194C423.233 57.3858 419.375 58.5003 416.051 60.7232C412.727 62.9465 410.087 66.1786 408.462 70.0142C406.837 73.85 406.299 78.1178 406.916 82.282C407.533 86.4462 409.277 90.3211 411.93 93.4199C414.582 96.5186 418.025 98.7033 421.826 99.6991C426.742 100.895 431.391 103.125 435.507 106.262C439.623 109.399 443.124 113.381 445.809 117.979C448.495 122.578 450.312 127.703 451.157 133.06C452.002 138.418 451.858 143.902 450.734 149.2C450.068 152.615 450.187 156.153 451.08 159.507C451.973 162.861 453.613 165.929 455.858 168.443C458.103 170.957 460.883 172.841 463.958 173.93C467.033 175.02 470.308 175.282 473.498 174.694C476.688 174.106 479.696 172.686 482.261 170.557C484.825 168.428 486.868 165.656 488.211 162.481C489.554 159.306 490.156 155.825 489.966 152.342C489.775 148.858 488.797 145.477 487.117 142.495Z" fill="white"/>
<path d="M365.1 118.743C368.572 120.786 372.531 121.664 376.468 121.264C380.406 120.864 384.142 119.204 387.199 116.499C390.256 113.793 392.494 110.164 393.624 106.078C394.755 101.992 394.728 97.6342 393.545 93.5648C392.047 88.3757 391.513 82.9191 391.975 77.5072C392.436 72.0954 393.884 66.835 396.235 62.0277C398.585 57.2204 401.793 52.9606 405.673 49.4923C409.554 46.0241 414.031 43.4162 418.848 41.8175C422.585 40.5557 425.891 38.1304 428.352 34.8472C430.812 31.564 432.317 27.5693 432.677 23.3658C433.038 19.1623 432.236 14.9378 430.375 11.2243C428.514 7.51052 425.675 4.47338 422.217 2.49517C418.758 0.516964 414.834 -0.314253 410.939 0.106598C407.043 0.527186 403.35 2.18071 400.324 4.85938C397.298 7.53778 395.074 11.1216 393.933 15.1595C392.791 19.1974 392.783 23.5091 393.909 27.552C396.865 37.9894 395.865 49.2646 391.13 58.9093C386.394 68.5541 378.307 75.7829 368.64 79.014C364.823 80.2074 361.427 82.6083 358.89 85.9064C356.354 89.2046 354.794 93.2477 354.412 97.5123C354.031 101.777 354.846 106.067 356.752 109.827C358.657 113.587 361.566 116.643 365.1 118.6V118.743Z" fill="white"/>
<path d="M416.169 115.248C413.531 115.347 410.937 116.014 408.54 117.208C406.144 118.402 403.992 120.1 402.211 122.202C395.303 130.169 385.75 134.863 375.641 135.257C365.532 135.652 355.689 131.714 348.265 124.306C346.347 122.365 344.09 120.855 341.626 119.863C339.161 118.871 336.539 118.418 333.91 118.529C330.675 118.693 327.526 119.709 324.739 121.488C321.951 123.266 319.61 125.753 317.919 128.732C316.228 131.71 315.239 135.09 315.038 138.576C314.837 142.061 315.431 145.547 316.767 148.728C318.103 151.91 320.14 154.69 322.702 156.827C325.264 158.964 328.272 160.393 331.463 160.988C334.655 161.583 337.933 161.327 341.012 160.242C344.09 159.156 346.876 157.275 349.125 154.762C352.546 150.768 356.665 147.541 361.245 145.266C365.825 142.991 370.776 141.712 375.815 141.504C380.854 141.295 385.881 142.16 390.61 144.05C395.338 145.939 399.674 148.816 403.369 152.516C405.775 154.86 408.677 156.532 411.821 157.387C414.965 158.242 418.255 158.253 421.404 157.42C424.553 156.587 427.465 154.934 429.884 152.607C432.304 150.28 434.158 147.348 435.284 144.07C436.41 140.791 436.774 137.265 436.344 133.8C435.914 130.335 434.703 127.036 432.816 124.192C430.93 121.349 428.427 119.046 425.525 117.487C422.623 115.928 419.411 115.159 416.169 115.248Z" fill="white"/>
</svg>
