<svg width="230" height="108" viewBox="0 0 230 108" fill="none" xmlns="http://www.w3.org/2000/svg">
<path d="M0 73.3129H10.0124L18.292 89.3906L26.3789 73.3129H36.3914V106.431H26.3789V88.7648L20.2656 100.318H16.1739L10.0124 88.7648V106.431H0V73.3129Z" fill="white"/>
<path d="M42.6837 73.3129H65.9338V80.6297H54.381V86.6468H64.9229V92.712H54.381V99.1142H65.9338V106.431H42.6837V73.3129Z" fill="white"/>
<path d="M87.3896 107.201C84.2126 107.201 81.3725 106.591 78.8694 105.372C76.3984 104.153 74.4729 102.452 73.093 100.269C71.7131 98.0552 71.0231 95.536 71.0231 92.712V73.3129H81.902V92.712C81.902 94.6375 82.3673 96.0816 83.298 97.0443C84.2286 98.0071 85.5925 98.4884 87.3896 98.4884C89.1867 98.4884 90.5506 98.0071 91.4812 97.0443C92.4119 96.0495 92.8772 94.6054 92.8772 92.712V73.3129H103.756V92.712C103.756 95.536 103.066 98.0552 101.686 100.269C100.306 102.452 98.3648 104.153 95.8617 105.372C93.3907 106.591 90.5666 107.201 87.3896 107.201Z" fill="white"/>
<path d="M123.847 80.6297H116.964V73.3129H141.947V80.6297H135.063V106.431H123.847V80.6297Z" fill="white"/>
<path d="M146.479 73.3129H157.598V106.431H146.479V73.3129Z" fill="white"/>
<path d="M163.872 73.3129H173.884L182.164 89.3906L190.251 73.3129H200.263V106.431H190.251V88.7648L184.137 100.318H180.046L173.884 88.7648V106.431H163.872V73.3129Z" fill="white"/>
<path d="M206.555 73.3129H229.806V80.6297H218.253V86.6468H228.795V92.712H218.253V99.1142H229.806V106.431H206.555V73.3129Z" fill="white"/>
<path d="M139.478 40.801C139.076 40.1115 138.551 39.5153 137.933 39.0471C137.315 38.579 136.617 38.2484 135.879 38.0745C133.056 37.3667 130.608 35.4828 129.069 32.8347C127.531 30.1864 127.027 26.9893 127.668 23.9418C127.914 22.7639 127.832 21.5338 127.433 20.4059C127.033 19.278 126.333 18.3026 125.421 17.6024C124.508 16.9021 123.424 16.5081 122.305 16.4697C121.186 16.4315 120.081 16.7506 119.129 17.3871C118.178 18.0237 117.422 18.9491 116.956 20.0474C116.491 21.1457 116.337 22.3677 116.514 23.5601C116.69 24.7524 117.19 25.862 117.949 26.7492C118.709 27.6365 119.695 28.262 120.783 28.5472C122.191 28.8895 123.522 29.5282 124.7 30.4264C125.879 31.3245 126.881 32.4647 127.65 33.7814C128.419 35.0982 128.939 36.5656 129.181 38.0996C129.423 39.6336 129.382 41.204 129.06 42.7208C128.869 43.6987 128.903 44.7119 129.159 45.6723C129.415 46.6326 129.885 47.511 130.527 48.2308C131.17 48.9506 131.966 49.49 132.847 49.802C133.727 50.114 134.665 50.1891 135.578 50.0208C136.492 49.8525 137.353 49.4458 138.087 48.8363C138.822 48.2267 139.407 47.4329 139.791 46.5237C140.176 45.6146 140.348 44.6179 140.293 43.6205C140.239 42.623 139.959 41.6551 139.478 40.801Z" fill="white"/>
<path d="M104.54 34.0001C105.535 34.585 106.668 34.8363 107.795 34.7218C108.923 34.6073 109.993 34.1322 110.868 33.3575C111.743 32.5827 112.384 31.5436 112.708 30.3737C113.032 29.2036 113.024 27.9559 112.685 26.7907C112.256 25.3049 112.103 23.7425 112.236 22.1929C112.368 20.6433 112.782 19.1371 113.455 17.7606C114.128 16.3841 115.047 15.1644 116.158 14.1713C117.269 13.1782 118.551 12.4315 119.93 11.9737C121 11.6125 121.947 10.918 122.651 9.97793C123.356 9.03783 123.787 7.89402 123.89 6.69041C123.993 5.4868 123.764 4.27719 123.231 3.21389C122.698 2.15051 121.885 1.28088 120.895 0.714451C119.904 0.148024 118.781 -0.0899811 117.666 0.0305225C116.55 0.150951 115.493 0.624412 114.626 1.3914C113.76 2.15832 113.123 3.18448 112.796 4.34066C112.469 5.49685 112.467 6.73145 112.789 7.88907C113.636 10.8776 113.35 14.1061 111.993 16.8677C110.637 19.6293 108.322 21.6992 105.554 22.6244C104.461 22.9661 103.489 23.6535 102.762 24.5979C102.036 25.5423 101.589 26.6999 101.48 27.921C101.371 29.1422 101.604 30.3706 102.15 31.4471C102.696 32.5237 103.528 33.3988 104.54 33.9592V34.0001Z" fill="white"/>
<path d="M119.163 32.9992C118.408 33.0278 117.665 33.2187 116.979 33.5606C116.292 33.9026 115.676 34.3886 115.167 34.9905C113.188 37.2718 110.453 38.6158 107.559 38.7287C104.664 38.8416 101.846 37.7142 99.7199 35.593C99.1707 35.0373 98.5244 34.6049 97.8188 34.3209C97.1132 34.0369 96.3623 33.907 95.6097 33.9387C94.6833 33.9858 93.7816 34.2768 92.9835 34.786C92.1853 35.2953 91.515 36.0074 91.0308 36.8602C90.5466 37.7131 90.2635 38.6808 90.2059 39.6789C90.1485 40.6769 90.3183 41.675 90.7009 42.5859C91.0834 43.4969 91.6668 44.293 92.4004 44.9049C93.1339 45.5168 93.9951 45.9258 94.909 46.0962C95.8228 46.2666 96.7615 46.1933 97.643 45.8825C98.5246 45.5718 99.3221 45.0332 99.9661 44.3137C100.946 43.17 102.125 42.246 103.436 41.5945C104.748 40.9431 106.165 40.5769 107.608 40.5172C109.051 40.4575 110.491 40.7052 111.845 41.2462C113.198 41.7874 114.44 42.6111 115.498 43.6703C116.187 44.3415 117.018 44.8204 117.918 45.0651C118.818 45.31 119.76 45.3132 120.662 45.0746C121.564 44.836 122.397 44.3628 123.09 43.6964C123.783 43.0301 124.314 42.1907 124.636 41.252C124.959 40.3133 125.063 39.3037 124.94 38.3114C124.817 37.3193 124.47 36.3748 123.93 35.5604C123.39 34.7462 122.673 34.087 121.842 33.6405C121.011 33.194 120.091 32.9738 119.163 32.9992Z" fill="white"/>
</svg>
