<svg width="178" height="27" viewBox="0 0 178 27" fill="none" xmlns="http://www.w3.org/2000/svg">
<path d="M0 0H7.73702L14.1349 12.4238L20.3841 0H28.1211V25.5916H20.3841V11.9403L15.66 20.8676H12.4983L7.73702 11.9403V25.5916H0V0Z" fill="#8D1B3D"/>
<path d="M32.9834 0H50.9497V5.65397H42.0224V10.3036H50.1686V14.9905H42.0224V19.9377H50.9497V25.5916H32.9834V0Z" fill="#8D1B3D"/>
<path d="M67.5295 26.1868C65.0745 26.1868 62.8798 25.7156 60.9456 24.7733C59.0361 23.831 57.5482 22.5167 56.4819 20.8304C55.4156 19.1193 54.8824 17.1727 54.8824 14.9905V0H63.289V14.9905C63.289 16.4783 63.6486 17.5943 64.3677 18.3382C65.0869 19.0821 66.1408 19.4541 67.5295 19.4541C68.9182 19.4541 69.9721 19.0821 70.6912 18.3382C71.4104 17.5695 71.77 16.4535 71.77 14.9905V0H80.1765V14.9905C80.1765 17.1727 79.6434 19.1193 78.577 20.8304C77.5107 22.5167 76.0104 23.831 74.0762 24.7733C72.1667 25.7156 69.9845 26.1868 67.5295 26.1868Z" fill="#8D1B3D"/>
<path d="M95.7017 5.65397H90.3825V0H109.688V5.65397H104.369V25.5916H95.7017V5.65397Z" fill="#8D1B3D"/>
<path d="M113.19 0H121.782V25.5916H113.19V0Z" fill="#8D1B3D"/>
<path d="M126.63 0H134.367L140.765 12.4238L147.014 0H154.751V25.5916H147.014V11.9403L142.29 20.8676H139.129L134.367 11.9403V25.5916H126.63V0Z" fill="#8D1B3D"/>
<path d="M159.614 0H177.58V5.65397H168.653V10.3036H176.799V14.9905H168.653V19.9377H177.58V25.5916H159.614V0Z" fill="#8D1B3D"/>
</svg>
